<svg width="27" height="10" viewBox="0 0 27 10" fill="none" xmlns="http://www.w3.org/2000/svg">
<path d="M6.958 8.138H3.066L2.422 10H0.364L3.878 0.213999H6.16L9.674 10H7.602L6.958 8.138ZM5.012 2.482L3.598 6.57H6.426L5.012 2.482ZM16.1675 3.266C16.1675 2.818 16.0415 2.47267 15.7895 2.23C15.5468 1.978 15.1455 1.852 14.5855 1.852H12.9475V4.722H14.5855C15.1455 4.722 15.5468 4.59133 15.7895 4.33C16.0415 4.06867 16.1675 3.714 16.1675 3.266ZM14.6555 0.228C15.2435 0.228 15.7568 0.307333 16.1955 0.465999C16.6342 0.624666 16.9982 0.839333 17.2875 1.11C17.5862 1.38067 17.8102 1.698 17.9595 2.062C18.1088 2.426 18.1835 2.81333 18.1835 3.224C18.1835 3.52267 18.1415 3.81667 18.0575 4.106C17.9735 4.39533 17.8382 4.666 17.6515 4.918C17.4742 5.17 17.2455 5.394 16.9655 5.59C16.6855 5.786 16.3495 5.93533 15.9575 6.038L18.2955 10H16.0275L13.8715 6.192H12.9475V10H10.9875V0.228H14.6555ZM19.4382 0.228H26.6062V1.81H24.0022V10H22.0422V1.81H19.4382V0.228Z" fill="white"/>
</svg>
