<svg width="47" height="46" viewBox="0 0 47 46" fill="none" xmlns="http://www.w3.org/2000/svg">
<path d="M0.5 23C0.5 10.2975 10.7975 0 23.5 0C36.2025 0 46.5 10.2975 46.5 23C46.5 35.7025 36.2025 46 23.5 46C10.7975 46 0.5 35.7025 0.5 23Z" fill="#EBEBEB"/>
<path d="M32.5 15.6677C31.7165 16.2203 30.849 16.643 29.9309 16.9195C29.4382 16.3529 28.7833 15.9513 28.0548 15.769C27.3264 15.5868 26.5596 15.6326 25.8581 15.9004C25.1565 16.1681 24.5542 16.6449 24.1324 17.2661C23.7107 17.8874 23.4899 18.6232 23.5 19.374V20.1922C22.0622 20.2295 20.6374 19.9106 19.3526 19.2639C18.0679 18.6173 16.963 17.6629 16.1364 16.4858C16.1364 16.4858 12.8636 23.8495 20.2273 27.1222C18.5422 28.266 16.5349 28.8395 14.5 28.7586C21.8636 32.8495 30.8636 28.7586 30.8636 19.3495C30.8629 19.1216 30.841 18.8942 30.7982 18.6704C31.6332 17.8469 32.2225 16.8071 32.5 15.6677V15.6677Z" stroke="black" stroke-width="1.5" stroke-linecap="round" stroke-linejoin="round"/>
</svg>
