<svg width="47" height="46" viewBox="0 0 47 46" fill="none" xmlns="http://www.w3.org/2000/svg">
<path d="M0.5 23C0.5 10.2975 10.7975 0 23.5 0C36.2025 0 46.5 10.2975 46.5 23C46.5 35.7025 36.2025 46 23.5 46C10.7975 46 0.5 35.7025 0.5 23Z" fill="#EBEBEB"/>
<path d="M28.4498 14H25.7498C24.5563 14 23.4117 14.4741 22.5678 15.318C21.7239 16.1619 21.2498 17.3065 21.2498 18.5V21.2H18.5498V24.8H21.2498V32H24.8498V24.8H27.5498L28.4498 21.2H24.8498V18.5C24.8498 18.2613 24.9446 18.0324 25.1134 17.8636C25.2822 17.6948 25.5111 17.6 25.7498 17.6H28.4498V14Z" stroke="black" stroke-width="1.5" stroke-linecap="round" stroke-linejoin="round"/>
</svg>
