<svg width="48" height="48" viewBox="0 0 48 48" fill="none" xmlns="http://www.w3.org/2000/svg">
<path d="M0 24C0 10.7452 10.7452 0 24 0C37.2548 0 48 10.7452 48 24C48 37.2548 37.2548 48 24 48C10.7452 48 0 37.2548 0 24Z" fill="white"/>
<path d="M19 25.5C19.8284 25.5 20.5 24.8284 20.5 24C20.5 23.1716 19.8284 22.5 19 22.5C18.1716 22.5 17.5 23.1716 17.5 24C17.5 24.8284 18.1716 25.5 19 25.5Z" fill="#606060"/>
<path d="M24 25.5C24.8284 25.5 25.5 24.8284 25.5 24C25.5 23.1716 24.8284 22.5 24 22.5C23.1716 22.5 22.5 23.1716 22.5 24C22.5 24.8284 23.1716 25.5 24 25.5Z" fill="#606060"/>
<path d="M29 25.5C29.8284 25.5 30.5 24.8284 30.5 24C30.5 23.1716 29.8284 22.5 29 22.5C28.1716 22.5 27.5 23.1716 27.5 24C27.5 24.8284 28.1716 25.5 29 25.5Z" fill="#606060"/>
<path d="M24 46C11.8497 46 2 36.1503 2 24H-2C-2 38.3594 9.6406 50 24 50V46ZM46 24C46 36.1503 36.1503 46 24 46V50C38.3594 50 50 38.3594 50 24H46ZM24 2C36.1503 2 46 11.8497 46 24H50C50 9.6406 38.3594 -2 24 -2V2ZM24 -2C9.6406 -2 -2 9.6406 -2 24H2C2 11.8497 11.8497 2 24 2V-2Z" fill="#C4C4C4"/>
</svg>
