<svg width="42" height="42" viewBox="0 0 42 42" fill="none" xmlns="http://www.w3.org/2000/svg">
<path d="M0 21C0 9.40202 9.40202 0 21 0C32.598 0 42 9.40202 42 21C42 32.598 32.598 42 21 42C9.40202 42 0 32.598 0 21Z" fill="white"/>
<path d="M29 23.6665V27.2221C29 27.6936 28.8127 28.1457 28.4793 28.4791C28.1459 28.8125 27.6937 28.9998 27.2222 28.9998H14.7778C14.3063 28.9998 13.8541 28.8125 13.5207 28.4791C13.1873 28.1457 13 27.6936 13 27.2221V23.6665" stroke="#606060" stroke-width="1.5" stroke-linecap="round" stroke-linejoin="round"/>
<path d="M25.4435 17.4446L20.9991 13.0001L16.5546 17.4446" stroke="#606060" stroke-width="1.5" stroke-linecap="round" stroke-linejoin="round"/>
<path d="M21 12.9998L21 23.6665" stroke="#606060" stroke-width="1.5" stroke-linecap="round" stroke-linejoin="round"/>
<path d="M21 40.5C10.2304 40.5 1.5 31.7696 1.5 21H-1.5C-1.5 33.4264 8.57359 43.5 21 43.5V40.5ZM40.5 21C40.5 31.7696 31.7696 40.5 21 40.5V43.5C33.4264 43.5 43.5 33.4264 43.5 21H40.5ZM21 1.5C31.7696 1.5 40.5 10.2304 40.5 21H43.5C43.5 8.57359 33.4264 -1.5 21 -1.5V1.5ZM21 -1.5C8.57359 -1.5 -1.5 8.57359 -1.5 21H1.5C1.5 10.2304 10.2304 1.5 21 1.5V-1.5Z" fill="#C4C4C4"/>
</svg>
