<svg width="18" height="18" viewBox="0 0 18 18" fill="none" xmlns="http://www.w3.org/2000/svg">
<path d="M8.72754 4V14" stroke="#606060" stroke-width="1.5" stroke-linecap="round" stroke-linejoin="round"/>
<path d="M11 5.81824H7.59091C7.16897 5.81824 6.76432 5.98585 6.46597 6.2842C6.16761 6.58256 6 6.98721 6 7.40915C6 7.83108 6.16761 8.23574 6.46597 8.53409C6.76432 8.83244 7.16897 9.00006 7.59091 9.00006H9.86364C10.2856 9.00006 10.6902 9.16767 10.9886 9.46602C11.2869 9.76438 11.4545 10.169 11.4545 10.591C11.4545 11.0129 11.2869 11.4176 10.9886 11.7159C10.6902 12.0143 10.2856 12.1819 9.86364 12.1819H6" stroke="#606060" stroke-width="1.5" stroke-linecap="round" stroke-linejoin="round"/>
<circle cx="9" cy="9" r="8.25" stroke="#606060" stroke-width="1.5"/>
</svg>
