<svg width="48" height="48" viewBox="0 0 48 48" fill="none" xmlns="http://www.w3.org/2000/svg">
<circle cx="24" cy="24" r="23.5" fill="white" stroke="#C4C4C4"/>
<path d="M-nan -nanL33.8594 16.7831C33.2897 16.245 32.6133 15.8181 31.8689 15.5268C31.1244 15.2356 30.3265 15.0857 29.5207 15.0857C28.7149 15.0857 27.9169 15.2356 27.1725 15.5268C26.428 15.8181 25.7517 16.245 25.182 16.7831L24.6862 17.2512C24.3009 17.6151 23.6986 17.6151 23.3132 17.2512L22.8174 16.7831C21.6667 15.6966 20.1061 15.0863 18.4787 15.0863C16.8514 15.0863 15.2907 15.6966 14.14 16.7831C12.9893 17.8696 12.3429 19.3432 12.3429 20.8797C12.3429 22.4162 12.9893 23.8898 14.14 24.9763L15.3223 26.0925L23.3132 33.6375C23.6986 34.0013 24.3009 34.0013 24.6862 33.6375L32.6771 26.0925L33.8594 24.9763C34.4293 24.4384 34.8815 23.7997 35.1899 23.0968C35.4984 22.3939 35.6572 21.6405 35.6572 20.8797C35.6572 20.1188 35.4984 19.3654 35.1899 18.6625C34.8815 17.9596 34.4293 17.321 33.8594 16.7831L-nan -nanL-nan -nanZ" fill="#A92E71" stroke="#606060" stroke-width="1.5" stroke-linecap="round" stroke-linejoin="round"/>
</svg>
