<svg width="90" height="11" viewBox="0 0 90 11" fill="none" xmlns="http://www.w3.org/2000/svg">
<path d="M0.938 0.228H2.898V6.276C2.898 6.948 3.07067 7.45667 3.416 7.802C3.76133 8.14733 4.24667 8.32 4.872 8.32C5.516 8.32 6.006 8.14733 6.342 7.802C6.68733 7.45667 6.86 6.948 6.86 6.276V0.228H8.834V6.262C8.834 6.906 8.72667 7.47067 8.512 7.956C8.29733 8.432 8.008 8.82867 7.644 9.146C7.28 9.46333 6.85533 9.70133 6.37 9.86C5.88467 10.0187 5.376 10.098 4.844 10.098C4.312 10.098 3.808 10.0187 3.332 9.86C2.856 9.70133 2.44067 9.46333 2.086 9.146C1.73133 8.82867 1.45133 8.432 1.246 7.956C1.04067 7.47067 0.938 6.906 0.938 6.262V0.228ZM19.0857 0.213999V10H17.1257L12.6877 3.294V10H10.7277V0.213999H12.6877L17.1257 6.934V0.213999H19.0857ZM22.9826 0.228V8.446H26.2026V10H21.0226V0.228H22.9826ZM36.9824 5.086C36.9824 5.82333 36.8518 6.5 36.5904 7.116C36.3291 7.72267 35.9698 8.25 35.5124 8.698C35.0644 9.13667 34.5371 9.482 33.9304 9.734C33.3238 9.97667 32.6751 10.098 31.9844 10.098C31.2938 10.098 30.6451 9.97667 30.0384 9.734C29.4318 9.482 28.8998 9.13667 28.4424 8.698C27.9851 8.25 27.6258 7.72267 27.3644 7.116C27.1031 6.5 26.9724 5.82333 26.9724 5.086C26.9724 4.358 27.1031 3.686 27.3644 3.07C27.6258 2.454 27.9851 1.92667 28.4424 1.488C28.8998 1.04933 29.4318 0.708666 30.0384 0.465999C30.6451 0.214 31.2938 0.0879999 31.9844 0.0879999C32.6844 0.0879999 33.3378 0.214 33.9444 0.465999C34.5511 0.708666 35.0784 1.04933 35.5264 1.488C35.9744 1.92667 36.3291 2.454 36.5904 3.07C36.8518 3.686 36.9824 4.358 36.9824 5.086ZM28.9884 5.086C28.9884 5.58067 29.0584 6.02867 29.1984 6.43C29.3478 6.83133 29.5531 7.17667 29.8144 7.466C30.0851 7.746 30.4024 7.96533 30.7664 8.124C31.1304 8.27333 31.5364 8.348 31.9844 8.348C32.4231 8.348 32.8244 8.27333 33.1884 8.124C33.5618 7.96533 33.8791 7.746 34.1404 7.466C34.4018 7.17667 34.6024 6.83133 34.7424 6.43C34.8918 6.02867 34.9664 5.58067 34.9664 5.086C34.9664 4.59133 34.8918 4.14333 34.7424 3.742C34.6024 3.34067 34.4018 3 34.1404 2.72C33.8791 2.44 33.5618 2.22533 33.1884 2.076C32.8244 1.92667 32.4231 1.852 31.9844 1.852C31.5364 1.852 31.1304 1.92667 30.7664 2.076C30.4024 2.22533 30.0851 2.44 29.8144 2.72C29.5531 3 29.3478 3.34067 29.1984 3.742C29.0584 4.14333 28.9884 4.59133 28.9884 5.086ZM37.9646 5.1C37.9646 4.372 38.0906 3.7 38.3426 3.084C38.5946 2.468 38.9399 1.94067 39.3786 1.502C39.8266 1.06333 40.3539 0.722666 40.9606 0.48C41.5673 0.228 42.2206 0.102 42.9206 0.102C43.4619 0.102 43.9753 0.172 44.4606 0.312C44.9459 0.451999 45.3846 0.657333 45.7766 0.928C46.1779 1.19867 46.5233 1.53 46.8126 1.922C47.1113 2.314 47.3446 2.762 47.5126 3.266H45.2586C45.0253 2.79 44.7079 2.44 44.3066 2.216C43.9053 1.98267 43.4386 1.866 42.9066 1.866C42.4773 1.866 42.0806 1.94067 41.7166 2.09C41.3619 2.23933 41.0539 2.454 40.7926 2.734C40.5406 3.014 40.3399 3.35467 40.1906 3.756C40.0506 4.15733 39.9806 4.60533 39.9806 5.1C39.9806 5.59467 40.0506 6.04267 40.1906 6.444C40.3399 6.836 40.5406 7.172 40.7926 7.452C41.0539 7.732 41.3619 7.95133 41.7166 8.11C42.0806 8.25933 42.4773 8.334 42.9066 8.334C43.4386 8.334 43.9053 8.21733 44.3066 7.984C44.7079 7.75067 45.0253 7.396 45.2586 6.92H47.5126C47.3446 7.424 47.1113 7.872 46.8126 8.264C46.5233 8.656 46.1779 8.98733 45.7766 9.258C45.3846 9.52867 44.9459 9.734 44.4606 9.874C43.9753 10.014 43.4619 10.084 42.9206 10.084C42.2206 10.084 41.5673 9.96267 40.9606 9.72C40.3539 9.47733 39.8266 9.13667 39.3786 8.698C38.9399 8.25 38.5946 7.72267 38.3426 7.116C38.0906 6.5 37.9646 5.828 37.9646 5.1ZM51.1467 5.646V10H49.1867V0.228H51.1467V4.61L54.7027 0.228H57.0687L53.0367 5.072L57.1807 10H54.7027L51.1467 5.646ZM64.4619 8.138H60.5699L59.9259 10H57.8679L61.3819 0.213999H63.6639L67.1779 10H65.1059L64.4619 8.138ZM62.5159 2.482L61.1019 6.57H63.9299L62.5159 2.482ZM73.9374 7.116C73.9374 6.696 73.7974 6.36933 73.5174 6.136C73.2374 5.89333 72.8594 5.772 72.3834 5.772H70.4514V8.404H72.4254C72.9014 8.404 73.2701 8.29667 73.5314 8.082C73.8021 7.858 73.9374 7.536 73.9374 7.116ZM73.6994 3.042C73.6994 2.65 73.5734 2.34667 73.3214 2.132C73.0787 1.91733 72.7194 1.81 72.2434 1.81H70.4514V4.26H72.2434C72.7194 4.26 73.0787 4.15733 73.3214 3.952C73.5734 3.74667 73.6994 3.44333 73.6994 3.042ZM75.9254 7.354C75.9254 7.746 75.8507 8.10533 75.7014 8.432C75.5614 8.74933 75.3514 9.02467 75.0714 9.258C74.8007 9.49133 74.4647 9.67333 74.0634 9.804C73.6621 9.93467 73.2094 10 72.7054 10H68.4914V0.228H72.5234C73.0367 0.228 73.4894 0.293333 73.8814 0.424C74.2734 0.545333 74.6047 0.718 74.8754 0.942C75.1461 1.166 75.3514 1.432 75.4914 1.74C75.6314 2.048 75.7014 2.384 75.7014 2.748C75.7014 3.34533 75.5427 3.83067 75.2254 4.204C74.9081 4.568 74.5114 4.82933 74.0354 4.988C74.3154 5.03467 74.5674 5.13267 74.7914 5.282C75.0247 5.422 75.2254 5.59933 75.3934 5.814C75.5614 6.02867 75.6921 6.27133 75.7854 6.542C75.8787 6.80333 75.9254 7.074 75.9254 7.354ZM79.4475 0.228V8.446H82.6675V10H77.4875V0.228H79.4475ZM89.5833 1.81H85.8733V4.26H89.1633V5.814H85.8733V8.404H89.5833V10H83.9133V0.213999H89.5833V1.81Z" fill="white"/>
</svg>
