<svg width="43" height="42" viewBox="0 0 43 42" fill="none" xmlns="http://www.w3.org/2000/svg">
<path d="M0.5 21C0.5 9.40202 9.90202 0 21.5 0C33.098 0 42.5 9.40202 42.5 21C42.5 32.598 33.098 42 21.5 42C9.90202 42 0.5 32.598 0.5 21Z" fill="white"/>
<path d="M29.5 23.6666V27.2222C29.5 27.6937 29.3127 28.1459 28.9793 28.4793C28.6459 28.8127 28.1937 29 27.7222 29H15.2778C14.8063 29 14.3541 28.8127 14.0207 28.4793C13.6873 28.1459 13.5 27.6937 13.5 27.2222V23.6666" stroke="#606060" stroke-width="1.5" stroke-linecap="round" stroke-linejoin="round"/>
<path d="M25.9434 17.4446L21.4989 13.0001L17.0545 17.4446" stroke="#606060" stroke-width="1.5" stroke-linecap="round" stroke-linejoin="round"/>
<path d="M21.5 13L21.5 23.6666" stroke="#606060" stroke-width="1.5" stroke-linecap="round" stroke-linejoin="round"/>
<path d="M21.5 40.5C10.7304 40.5 2 31.7696 2 21H-1C-1 33.4264 9.07359 43.5 21.5 43.5V40.5ZM41 21C41 31.7696 32.2696 40.5 21.5 40.5V43.5C33.9264 43.5 44 33.4264 44 21H41ZM21.5 1.5C32.2696 1.5 41 10.2304 41 21H44C44 8.57359 33.9264 -1.5 21.5 -1.5V1.5ZM21.5 -1.5C9.07359 -1.5 -1 8.57359 -1 21H2C2 10.2304 10.7304 1.5 21.5 1.5V-1.5Z" fill="#C4C4C4"/>
</svg>
