<svg width="25" height="20" viewBox="0 0 25 20" fill="none" xmlns="http://www.w3.org/2000/svg">
<path d="M23.5 1.03819C22.5424 1.71367 21.4821 2.2303 20.36 2.56819C19.7577 1.8757 18.9573 1.38488 18.067 1.16212C17.1767 0.939353 16.2395 0.995389 15.3821 1.32265C14.5247 1.6499 13.7884 2.23259 13.273 2.99191C12.7575 3.75122 12.4877 4.65053 12.5 5.56819V6.56819C10.7426 6.61376 9.00127 6.22401 7.43101 5.43364C5.86074 4.64327 4.51032 3.47683 3.5 2.03819C3.5 2.03819 -0.5 11.0382 8.5 15.0382C6.44053 16.4362 3.98716 17.1371 1.5 17.0382C10.5 22.0382 21.5 17.0382 21.5 5.53819C21.4991 5.25965 21.4723 4.98179 21.42 4.70819C22.4406 3.70169 23.1608 2.43091 23.5 1.03819V1.03819Z" stroke="black" stroke-width="1.5" stroke-linecap="round" stroke-linejoin="round"/>
</svg>
