<svg width="42" height="42" viewBox="0 0 42 42" fill="none" xmlns="http://www.w3.org/2000/svg">
<path d="M0 21C0 9.40202 9.40202 0 21 0C32.598 0 42 9.40202 42 21C42 32.598 32.598 42 21 42C9.40202 42 0 32.598 0 21Z" fill="white"/>
<path d="M15.603 13.5H26.3959C26.8414 13.5 27.0645 14.0386 26.7495 14.3536L22.9566 18.1464C22.7613 18.3417 22.7613 18.6583 22.9566 18.8536L26.7495 22.6464C27.0645 22.9614 26.8414 23.5 26.3959 23.5H15.603M15.103 11V31" stroke="#606060" stroke-width="1.5"/>
<path d="M21 40.5C10.2304 40.5 1.5 31.7696 1.5 21H-1.5C-1.5 33.4264 8.57359 43.5 21 43.5V40.5ZM40.5 21C40.5 31.7696 31.7696 40.5 21 40.5V43.5C33.4264 43.5 43.5 33.4264 43.5 21H40.5ZM21 1.5C31.7696 1.5 40.5 10.2304 40.5 21H43.5C43.5 8.57359 33.4264 -1.5 21 -1.5V1.5ZM21 -1.5C8.57359 -1.5 -1.5 8.57359 -1.5 21H1.5C1.5 10.2304 10.2304 1.5 21 1.5V-1.5Z" fill="#C4C4C4"/>
</svg>
