<svg width="25" height="20" viewBox="0 0 25 20" fill="none" xmlns="http://www.w3.org/2000/svg">
<path d="M23.5 1.03813C22.5424 1.71361 21.4821 2.23024 20.36 2.56813C19.7577 1.87564 18.9573 1.38482 18.067 1.16206C17.1767 0.939292 16.2395 0.995328 15.3821 1.32259C14.5247 1.64984 13.7884 2.23253 13.273 2.99185C12.7575 3.75116 12.4877 4.65047 12.5 5.56813V6.56813C10.7426 6.6137 9.00127 6.22394 7.43101 5.43358C5.86074 4.64321 4.51032 3.47677 3.5 2.03813C3.5 2.03813 -0.5 11.0381 8.5 15.0381C6.44053 16.4361 3.98716 17.1371 1.5 17.0381C10.5 22.0381 21.5 17.0381 21.5 5.53813C21.4991 5.25959 21.4723 4.98173 21.42 4.70813C22.4406 3.70163 23.1608 2.43084 23.5 1.03813V1.03813Z" stroke="black" stroke-width="1.5" stroke-linecap="round" stroke-linejoin="round"/>
</svg>
