<svg width="26" height="21" viewBox="0 0 26 21" fill="none" xmlns="http://www.w3.org/2000/svg">
<path d="M-nan -nanL22.8594 2.78311C22.2897 2.24498 21.6133 1.8181 20.8689 1.52685C20.1244 1.2356 19.3265 1.08569 18.5207 1.08569C17.7149 1.08569 16.9169 1.2356 16.1725 1.52685C15.428 1.8181 14.7517 2.24498 14.182 2.78311L13.6862 3.25119C13.3009 3.61505 12.6986 3.61505 12.3132 3.25119L11.8174 2.78311C10.6667 1.69663 9.10606 1.08626 7.47873 1.08626C5.8514 1.08626 4.29072 1.69663 3.14002 2.78311C1.98932 3.86959 1.34287 5.34317 1.34286 6.87969C1.34286 8.4162 1.98932 9.88978 3.14002 10.9763L4.32229 12.0925L12.3132 19.6375C12.6986 20.0013 13.3009 20.0013 13.6862 19.6375L21.6771 12.0925L22.8594 10.9763C23.4293 10.4384 23.8815 9.79975 24.1899 9.09684C24.4984 8.39394 24.6572 7.64054 24.6572 6.87969C24.6572 6.11883 24.4984 5.36543 24.1899 4.66253C23.8815 3.95962 23.4293 3.32099 22.8594 2.78311L-nan -nanL-nan -nanZ" fill="#A92E71" stroke="#606060" stroke-width="1.5" stroke-linecap="round" stroke-linejoin="round"/>
</svg>
